<svg width="70" height="70" viewBox="0 0 70 70" fill="none" xmlns="http://www.w3.org/2000/svg">
<path d="M68.0727 13.8813L13.8789 68.0714C13.7211 68.2293 13.6136 68.4304 13.57 68.6494C13.5265 68.8683 13.5488 69.0953 13.6343 69.3016C13.7197 69.5078 13.8644 69.6841 14.05 69.8082C14.2356 69.9322 14.4539 69.9985 14.6771 69.9985H31.6127V66.6116C31.6127 66.3122 31.7316 66.0251 31.9434 65.8133C32.1551 65.6016 32.4423 65.4827 32.7417 65.4827C33.0412 65.4827 33.3284 65.6016 33.5401 65.8133C33.7518 66.0251 33.8708 66.3122 33.8708 66.6116V69.9985H40.645V66.6116C40.645 66.3122 40.764 66.0251 40.9757 65.8133C41.1874 65.6016 41.4746 65.4827 41.774 65.4827C42.0735 65.4827 42.3607 65.6016 42.5724 65.8133C42.7841 66.0251 42.9031 66.3122 42.9031 66.6116V69.9985H49.6773V66.6116C49.6773 66.3122 49.7962 66.0251 50.008 65.8133C50.2197 65.6016 50.5069 65.4827 50.8063 65.4827C51.1058 65.4827 51.393 65.6016 51.6047 65.8133C51.8164 66.0251 51.9354 66.3122 51.9354 66.6116V69.9985H58.7096V66.6116C58.7096 66.3122 58.8285 66.0251 59.0403 65.8133C59.252 65.6016 59.5392 65.4827 59.8386 65.4827C60.1381 65.4827 60.4253 65.6016 60.637 65.8133C60.8487 66.0251 60.9677 66.3122 60.9677 66.6116V69.9985H68.8709C69.1704 69.9985 69.4576 69.8796 69.6693 69.6678C69.881 69.4561 70 69.169 70 68.8696V14.6795C69.9999 14.4562 69.9337 14.238 69.8096 14.0524C69.6856 13.8668 69.5092 13.7221 69.303 13.6367C69.0967 13.5513 68.8697 13.5289 68.6507 13.5725C68.4318 13.616 68.2306 13.7235 68.0727 13.8813ZM60.9677 59.8379C60.9677 60.1373 60.8487 60.4244 60.637 60.6362C60.4253 60.8479 60.1381 60.9668 59.8386 60.9668H37.2579C37.0346 60.9668 36.8164 60.9006 36.6308 60.7765C36.4451 60.6524 36.3005 60.4761 36.215 60.2699C36.1296 60.0636 36.1072 59.8367 36.1508 59.6177C36.1943 59.3987 36.3018 59.1976 36.4597 59.0397L59.0404 36.4605C59.1983 36.3027 59.3995 36.1952 59.6184 36.1516C59.8374 36.1081 60.0644 36.1305 60.2707 36.2159C60.4769 36.3013 60.6533 36.446 60.7773 36.6316C60.9014 36.8172 60.9676 37.0354 60.9677 37.2587V59.8379Z" fill="#FEE05A"/>
<path d="M13.5479 21.457H24.8382V49.681H13.5479V21.457Z" fill="#FEE05A"/>
<path d="M13.8787 52.7357L18.3948 57.2519C18.6065 57.4635 18.8937 57.5824 19.193 57.5824C19.4924 57.5824 19.7795 57.4635 19.9913 57.2519L24.5074 52.7357C24.7192 52.524 24.8382 52.2369 24.8382 51.9375H13.5479C13.5479 52.2369 13.6669 52.524 13.8787 52.7357Z" fill="#FEE05A"/>
<path d="M19.194 13.5508C17.6974 13.5526 16.2625 14.1479 15.2042 15.2062C14.146 16.2645 13.5506 17.6993 13.5488 19.196H24.8392C24.8374 17.6993 24.2421 16.2645 23.1838 15.2062C22.1255 14.1479 20.6907 13.5526 19.194 13.5508Z" fill="#FEE05A"/>
<path d="M53.0648 4.52152H11.1775C10.8989 3.14966 10.1205 1.93025 8.99332 1.1C7.86617 0.269753 6.47072 -0.112092 5.07785 0.0285913C3.68499 0.169275 2.39409 0.822451 1.45575 1.86132C0.517419 2.90019 -0.0014041 4.25063 2.85405e-06 5.65048V50.8089C0.0017956 52.3054 0.59713 53.7401 1.65542 54.7984C2.71371 55.8566 4.14854 56.4519 5.64519 56.4537H48.5486C49.4469 56.4537 50.3085 56.0968 50.9437 55.4617C51.5789 54.8265 51.9357 53.965 51.9357 53.0668V51.9378H53.0648C53.9631 51.9378 54.8246 51.581 55.4598 50.9458C56.095 50.3107 56.4519 49.4492 56.4519 48.5509V7.9084C56.4519 7.01015 56.095 6.14868 55.4598 5.51352C54.8246 4.87835 53.9631 4.52152 53.0648 4.52152ZM2.25808 5.65048C2.25808 4.75223 2.61493 3.89076 3.25014 3.2556C3.88535 2.62044 4.74687 2.2636 5.64519 2.2636C6.54351 2.2636 7.40503 2.62044 8.04024 3.2556C8.67545 3.89076 9.0323 4.75223 9.0323 5.65048V46.293C8.05573 45.5588 6.867 45.1618 5.64519 45.1618C4.42338 45.1618 3.23465 45.5588 2.25808 46.293V5.65048ZM49.6777 53.0668C49.6777 53.3662 49.5587 53.6534 49.347 53.8651C49.1352 54.0768 48.8481 54.1957 48.5486 54.1957H5.64519C4.97528 54.1957 4.32042 53.9971 3.76341 53.6249C3.2064 53.2528 2.77227 52.7238 2.51591 52.105C2.25954 51.4861 2.19247 50.8051 2.32316 50.1481C2.45385 49.4911 2.77644 48.8876 3.25014 48.414C3.72384 47.9403 4.32736 47.6177 4.9844 47.4871C5.64143 47.3564 6.32247 47.4234 6.94138 47.6798C7.5603 47.9361 8.08929 48.3702 8.46147 48.9272C8.83365 49.4842 9.0323 50.139 9.0323 50.8089C9.0323 51.1083 9.15126 51.3954 9.36299 51.6072C9.57473 51.8189 9.8619 51.9378 10.1613 51.9378H49.6777V53.0668ZM54.1938 48.5509C54.1938 48.8504 54.0749 49.1375 53.8631 49.3492C53.6514 49.561 53.3642 49.6799 53.0648 49.6799H11.2904V6.77944H53.0648C53.3642 6.77944 53.6514 6.89839 53.8631 7.11011C54.0749 7.32183 54.1938 7.60898 54.1938 7.9084V48.5509Z" fill="#FEA851"/>
<path d="M50.8071 29.3603H42.9038V21.4576C42.9038 20.5594 42.5469 19.6979 41.9117 19.0627C41.2765 18.4276 40.415 18.0707 39.5167 18.0707H31.6134V10.168C31.6134 9.8686 31.4945 9.58145 31.2827 9.36973C31.071 9.15801 30.7838 9.03906 30.4844 9.03906H14.6779C14.3784 9.03906 14.0913 9.15801 13.8795 9.36973C13.6678 9.58145 13.5488 9.8686 13.5488 10.168V25.9735C13.5488 26.2729 13.6678 26.56 13.8795 26.7717C14.0913 26.9835 14.3784 27.1024 14.6779 27.1024H22.5811V35.0051C22.5811 35.9034 22.938 36.7648 23.5732 37.4C24.2084 38.0352 25.0699 38.392 25.9682 38.392H33.8715V46.2947C33.8715 46.5941 33.9905 46.8813 34.2022 47.093C34.4139 47.3047 34.7011 47.4237 35.0005 47.4237H50.8071C51.1065 47.4237 51.3937 47.3047 51.6054 47.093C51.8171 46.8813 51.9361 46.5941 51.9361 46.2947V30.4893C51.9361 30.1899 51.8171 29.9027 51.6054 29.691C51.3937 29.4793 51.1065 29.3603 50.8071 29.3603ZM22.5811 21.4576V24.8445H15.8069V11.297H29.3554V18.0707H25.9682C25.0699 18.0707 24.2084 18.4276 23.5732 19.0627C22.938 19.6979 22.5811 20.5594 22.5811 21.4576ZM29.3554 20.3287V24.8445H24.8392V21.4576C24.8392 21.1582 24.9582 20.871 25.1699 20.6593C25.3816 20.4476 25.6688 20.3287 25.9682 20.3287H29.3554ZM33.8715 30.4893V36.1341H25.9682C25.6688 36.1341 25.3816 36.0151 25.1699 35.8034C24.9582 35.5917 24.8392 35.3045 24.8392 35.0051V27.1024H30.4844C30.7838 27.1024 31.071 26.9835 31.2827 26.7717C31.4945 26.56 31.6134 26.2729 31.6134 25.9735V20.3287H39.5167C39.8161 20.3287 40.1033 20.4476 40.315 20.6593C40.5268 20.871 40.6457 21.1582 40.6457 21.4576V29.3603H35.0005C34.7011 29.3603 34.4139 29.4793 34.2022 29.691C33.9905 29.9027 33.8715 30.1899 33.8715 30.4893ZM40.6457 31.6182V35.0051C40.6457 35.3045 40.5268 35.5917 40.315 35.8034C40.1033 36.0151 39.8161 36.1341 39.5167 36.1341H36.1296V31.6182H40.6457ZM49.678 45.1658H36.1296V38.392H39.5167C40.415 38.392 41.2765 38.0352 41.9117 37.4C42.5469 36.7648 42.9038 35.9034 42.9038 35.0051V31.6182H49.678V45.1658Z" fill="#FEA851"/>
</svg>
