<svg width="30" height="30" viewBox="0 0 30 30" fill="none" xmlns="http://www.w3.org/2000/svg">
<path fill-rule="evenodd" clip-rule="evenodd" d="M15 30C6.71573 30 0 23.2843 0 15C0 6.71573 6.71573 0 15 0C23.2843 0 30 6.71573 30 15C30 23.2843 23.2843 30 15 30ZM17.505 7.50503C17.7784 7.23166 18.2216 7.23166 18.495 7.50503C18.7683 7.77839 18.7683 8.22161 18.495 8.49498L11.9899 15L18.495 21.505C18.7683 21.7784 18.7683 22.2216 18.495 22.495C18.2216 22.7683 17.7784 22.7683 17.505 22.495L10.505 15.495C10.2317 15.2216 10.2317 14.7784 10.505 14.505L17.505 7.50503Z" fill="#FEE05A"/>
</svg>
