<svg width="30" height="30" viewBox="0 0 30 30" fill="none" xmlns="http://www.w3.org/2000/svg">
<path fill-rule="evenodd" clip-rule="evenodd" d="M15 30C23.2843 30 30 23.2843 30 15C30 6.71573 23.2843 0 15 0C6.71573 0 0 6.71573 0 15C0 23.2843 6.71573 30 15 30ZM12.495 7.50503C12.2216 7.23166 11.7784 7.23166 11.505 7.50503C11.2317 7.77839 11.2317 8.22161 11.505 8.49498L18.0101 15L11.505 21.505C11.2317 21.7784 11.2317 22.2216 11.505 22.495C11.7784 22.7683 12.2216 22.7683 12.495 22.495L19.495 15.495C19.7683 15.2216 19.7683 14.7784 19.495 14.505L12.495 7.50503Z" fill="#FEE05A"/>
</svg>
