<svg width="34" height="36" viewBox="0 0 34 36" fill="none" xmlns="http://www.w3.org/2000/svg">
<path d="M21.8211 15.6328C20.2175 15.6328 18.65 16.1083 17.3167 16.9992C15.9834 17.8901 14.9442 19.1563 14.3305 20.6378C13.7169 22.1193 13.5563 23.7495 13.8692 25.3222C14.182 26.895 14.9542 28.3396 16.0881 29.4735C17.222 30.6074 18.6666 31.3796 20.2393 31.6924C21.8121 32.0052 23.4423 31.8447 24.9237 31.231C26.4052 30.6174 27.6715 29.5782 28.5624 28.2449C29.4533 26.9116 29.9288 25.3441 29.9288 23.7405C29.9288 21.5902 29.0746 19.528 27.5541 18.0075C26.0336 16.487 23.9714 15.6328 21.8211 15.6328ZM27.4907 28.1476C27.3968 28.2687 27.2588 28.3477 27.1068 28.3672C26.9548 28.3867 26.8013 28.3453 26.6799 28.2519L21.4678 24.198C21.3977 24.1441 21.3409 24.0748 21.3018 23.9955C21.2626 23.9162 21.2422 23.8289 21.242 23.7405V17.3702C21.242 17.2166 21.303 17.0693 21.4116 16.9607C21.5202 16.8521 21.6675 16.7911 21.8211 16.7911C21.9747 16.7911 22.122 16.8521 22.2306 16.9607C22.3392 17.0693 22.4002 17.2166 22.4002 17.3702V23.4567L27.3864 27.3368C27.5075 27.4307 27.5865 27.5687 27.606 27.7207C27.6255 27.8727 27.5841 28.0262 27.4907 28.1476Z" fill="#FEE05A"/>
<path d="M21.8217 11.582C19.4164 11.582 17.0651 12.2953 15.0651 13.6316C13.0652 14.9679 11.5064 16.8673 10.5859 19.0895C9.66543 21.3118 9.42459 23.7571 9.89384 26.1162C10.3631 28.4753 11.5214 30.6422 13.2222 32.3431C14.923 34.0439 17.09 35.2022 19.4491 35.6714C21.8082 36.1407 24.2535 35.8998 26.4757 34.9794C28.6979 34.0589 30.5973 32.5001 31.9336 30.5002C33.27 28.5002 33.9832 26.1489 33.9832 23.7436C33.9832 20.5181 32.7019 17.4248 30.4212 15.1441C28.1405 12.8633 25.0471 11.582 21.8217 11.582ZM21.8217 33.0095C19.9891 33.0095 18.1976 32.4661 16.6738 31.4479C15.15 30.4298 13.9624 28.9826 13.2611 27.2895C12.5598 25.5964 12.3763 23.7333 12.7338 21.9359C13.0913 20.1385 13.9738 18.4874 15.2697 17.1916C16.5656 15.8957 18.2166 15.0132 20.014 14.6557C21.8114 14.2981 23.6745 14.4816 25.3676 15.183C27.0607 15.8843 28.5079 17.0719 29.526 18.5957C30.5442 20.1195 31.0876 21.9109 31.0876 23.7436C31.0876 26.201 30.1114 28.5579 28.3737 30.2956C26.636 32.0333 24.2792 33.0095 21.8217 33.0095Z" fill="#FEE05A"/>
<path d="M20.2695 5.793H5.25868C4.975 5.79078 4.70038 5.89274 4.48689 6.07954C4.2734 6.26635 4.13589 6.52501 4.10044 6.80647L2.94219 16.0724C2.92155 16.2362 2.93617 16.4025 2.98506 16.5602C3.03395 16.7179 3.11598 16.8633 3.22567 16.9867C3.33535 17.1101 3.47015 17.2086 3.62102 17.2757C3.77189 17.3427 3.93535 17.3767 4.10044 17.3754H19.1112C19.3949 17.3776 19.6695 17.2757 19.883 17.0889C20.0965 16.9021 20.234 16.6434 20.2695 16.362L21.4277 7.09603C21.4484 6.93223 21.4338 6.76591 21.3849 6.60822C21.336 6.45053 21.2539 6.30511 21.1443 6.18172C21.0346 6.05832 20.8998 5.9598 20.7489 5.89276C20.598 5.82572 20.4346 5.79171 20.2695 5.793ZM8.44384 13.9007H11.2931L11.0036 16.2172H8.15428L8.44384 13.9007ZM4.82434 10.426H7.71994L7.43038 12.7425H4.53478L4.82434 10.426ZM8.87818 10.426H11.7275L11.4379 12.7425H8.58862L8.87818 10.426ZM12.1734 16.2172L12.4629 13.9007H15.3585L15.069 16.2172H12.1734ZM12.6077 12.7425L12.8973 10.426H15.7929L15.5033 12.7425H12.6077ZM16.9511 10.426H19.8467L19.5572 12.7425H16.6616L16.9511 10.426ZM19.9799 9.26773H17.0843L17.3739 6.95125H20.2695L19.9799 9.26773ZM15.9261 9.26773H13.0305L13.32 6.95125H16.2156L15.9261 9.26773ZM12.1618 6.95125L11.8722 9.26773H9.02296L9.31252 6.95125H12.1618ZM8.1427 6.95125L7.85314 9.26773H4.95753L5.24709 6.95125H8.1427ZM4.08885 16.2172L4.37841 13.9007H7.27402L6.98446 16.2172H4.08885ZM16.2156 16.2172L16.5052 13.9007H19.4008L19.1112 16.2172H16.2156Z" fill="#FEA851"/>
<path d="M26.7152 17.7385L24.7172 1.52314C24.6647 1.10043 24.4587 0.711743 24.1384 0.430943C23.8181 0.150144 23.4058 -0.0031999 22.9798 5.06379e-05H4.15841C3.73247 -0.0031999 3.32017 0.150144 2.99986 0.430943C2.67956 0.711743 2.47358 1.10043 2.42105 1.52314L0.39413 17.7385C0.363614 17.984 0.38587 18.2332 0.459409 18.4693C0.532948 18.7055 0.656074 18.9233 0.820551 19.108C0.985028 19.2928 1.18706 19.4403 1.41314 19.5407C1.63922 19.6411 1.88413 19.692 2.13149 19.6902H24.9894C25.2358 19.6904 25.4794 19.6382 25.7041 19.5371C25.9287 19.436 26.1294 19.2882 26.2926 19.1037C26.4558 18.9191 26.5779 18.7019 26.6507 18.4666C26.7236 18.2312 26.7456 17.983 26.7152 17.7385ZM4.15841 1.15829H22.6903C22.7725 1.1577 22.854 1.17464 22.9292 1.20799C23.0044 1.24133 23.0717 1.29032 23.1264 1.35169C23.1812 1.41306 23.2223 1.4854 23.247 1.5639C23.2716 1.64239 23.2793 1.72523 23.2694 1.80691L23.0377 3.47477H3.34765L3.5735 1.66792C3.59068 1.52566 3.65998 1.39482 3.76801 1.30069C3.87605 1.20656 4.01515 1.15583 4.15841 1.15829ZM2.13149 18.5319C2.04922 18.5325 1.96777 18.5156 1.89256 18.4822C1.81735 18.4489 1.75011 18.3999 1.69532 18.3385C1.64052 18.2771 1.59943 18.2048 1.57479 18.1263C1.55014 18.0478 1.5425 17.965 1.55237 17.8833L3.21445 4.63302H22.9045L21.2425 18.0223C21.2254 18.1635 21.1569 18.2936 21.0501 18.3876C20.9433 18.4816 20.8056 18.5329 20.6634 18.5319H2.13149ZM24.9894 18.5319H22.2791C22.3222 18.4137 22.3532 18.2915 22.3718 18.1671L23.9817 5.24688L25.5627 17.8833C25.5725 17.9645 25.565 18.0468 25.5407 18.1249C25.5164 18.203 25.4758 18.2751 25.4217 18.3363C25.3675 18.3976 25.301 18.4467 25.2265 18.4804C25.152 18.5141 25.0712 18.5317 24.9894 18.5319Z" fill="#FEA851"/>
</svg>
