<svg width="27" height="36" viewBox="0 0 27 36" fill="none" xmlns="http://www.w3.org/2000/svg">
<path d="M25.0419 9.26933H22.1467V8.69028C22.1467 8.22956 21.9636 7.78771 21.6379 7.46193C21.3121 7.13615 20.8702 6.95312 20.4095 6.95312H13.4609C13.0002 6.95312 12.5583 7.13615 12.2325 7.46193C11.9067 7.78771 11.7237 8.22956 11.7237 8.69028V9.26933H8.82847C8.36774 9.26933 7.92589 9.45236 7.60011 9.77814C7.27433 10.1039 7.09131 10.5458 7.09131 11.0065V34.1686C7.09131 34.6293 7.27433 35.0712 7.60011 35.3969C7.92589 35.7227 8.36774 35.9057 8.82847 35.9057H25.0419C25.5027 35.9057 25.9445 35.7227 26.2703 35.3969C26.5961 35.0712 26.7791 34.6293 26.7791 34.1686V11.0065C26.7791 10.5458 26.5961 10.1039 26.2703 9.77814C25.9445 9.45236 25.5027 9.26933 25.0419 9.26933ZM12.8818 8.69028C12.8818 8.53671 12.9428 8.38942 13.0514 8.28083C13.16 8.17224 13.3073 8.11123 13.4609 8.11123H20.4095C20.5631 8.11123 20.7104 8.17224 20.819 8.28083C20.9276 8.38942 20.9886 8.53671 20.9886 8.69028V11.0065C20.9886 11.1601 20.9276 11.3074 20.819 11.4159C20.7104 11.5245 20.5631 11.5855 20.4095 11.5855H13.4609C13.3073 11.5855 13.16 11.5245 13.0514 11.4159C12.9428 11.3074 12.8818 11.1601 12.8818 11.0065V8.69028ZM23.1351 19.5226L16.1865 26.4712C16.0779 26.5798 15.9306 26.6408 15.7771 26.6408C15.6236 26.6408 15.4763 26.5798 15.3677 26.4712L10.7353 21.8388C10.6298 21.7296 10.5714 21.5833 10.5728 21.4315C10.5741 21.2797 10.635 21.1345 10.7423 21.0271C10.8497 20.9197 10.9949 20.8588 11.1468 20.8575C11.2986 20.8562 11.4449 20.9146 11.5541 21.02L15.7771 25.2431L22.3163 18.7038C22.4255 18.5984 22.5718 18.54 22.7236 18.5413C22.8755 18.5426 23.0207 18.6035 23.1281 18.7109C23.2354 18.8182 23.2963 18.9635 23.2976 19.1153C23.299 19.2671 23.2406 19.4134 23.1351 19.5226Z" fill="#FEE05A"/>
<path d="M19.5408 4.05766H16.9351V3.76813C16.9351 3.3842 16.7826 3.01599 16.5111 2.7445C16.2396 2.47302 15.8714 2.3205 15.4875 2.3205H13.4029C13.3047 1.64979 12.9591 1.04011 12.434 0.611446C11.9088 0.182785 11.2423 -0.0338087 10.5655 0.00429292C9.88873 -0.0338087 9.2222 0.182785 8.69709 0.611446C8.17198 1.04011 7.82633 1.64979 7.72816 2.3205H5.64358C5.25964 2.3205 4.89143 2.47302 4.61995 2.7445C4.34846 3.01599 4.19594 3.3842 4.19594 3.76813V4.05766H1.59021C1.20627 4.05766 0.838063 4.21018 0.566579 4.48166C0.295096 4.75314 0.142578 5.12136 0.142578 5.50529V27.5093C0.142578 27.8932 0.295096 28.2614 0.566579 28.5329C0.838063 28.8044 1.20627 28.9569 1.59021 28.9569H19.5408C19.9248 28.9569 20.293 28.8044 20.5645 28.5329C20.8359 28.2614 20.9885 27.8932 20.9885 27.5093V5.50529C20.9885 5.12136 20.8359 4.75314 20.5645 4.48166C20.293 4.21018 19.9248 4.05766 19.5408 4.05766ZM10.5655 1.1624C10.9328 1.1284 11.3003 1.22626 11.602 1.43846C11.9038 1.65065 12.1201 1.96333 12.2123 2.3205H8.9187C9.01093 1.96333 9.22729 1.65065 9.52903 1.43846C9.83078 1.22626 10.1982 1.1284 10.5655 1.1624ZM5.35405 3.76813C5.35405 3.69135 5.38455 3.6177 5.43885 3.56341C5.49315 3.50911 5.56679 3.47861 5.64358 3.47861H15.4875C15.5643 3.47861 15.6379 3.50911 15.6922 3.56341C15.7465 3.6177 15.777 3.69135 15.777 3.76813V5.50529C15.777 5.58208 15.7465 5.65572 15.6922 5.71002C15.6379 5.76431 15.5643 5.79482 15.4875 5.79482H5.64358C5.56679 5.79482 5.49315 5.76431 5.43885 5.71002C5.38455 5.65572 5.35405 5.58208 5.35405 5.50529V3.76813ZM19.8304 27.5093C19.8304 27.5861 19.7999 27.6597 19.7456 27.714C19.6913 27.7683 19.6176 27.7988 19.5408 27.7988H1.59021C1.51342 27.7988 1.43978 27.7683 1.38548 27.714C1.33119 27.6597 1.30068 27.5861 1.30068 27.5093V5.50529C1.30068 5.4285 1.33119 5.35486 1.38548 5.30056C1.43978 5.24627 1.51342 5.21576 1.59021 5.21576H4.19594V5.50529C4.19594 5.88923 4.34846 6.25744 4.61995 6.52892C4.89143 6.8004 5.25964 6.95292 5.64358 6.95292H15.4875C15.8714 6.95292 16.2396 6.8004 16.5111 6.52892C16.7826 6.25744 16.9351 5.88923 16.9351 5.50529V5.21576H19.5408C19.6176 5.21576 19.6913 5.24627 19.7456 5.30056C19.7999 5.35486 19.8304 5.4285 19.8304 5.50529V27.5093Z" fill="#FEA851"/>
<path d="M5.35434 12.7478C5.69792 12.7478 6.03378 12.6459 6.31946 12.455C6.60513 12.2641 6.82779 11.9928 6.95927 11.6754C7.09075 11.358 7.12515 11.0087 7.05812 10.6717C6.99109 10.3347 6.82565 10.0252 6.5827 9.78224C6.33976 9.53929 6.03022 9.37385 5.69325 9.30682C5.35627 9.23979 5.00699 9.27419 4.68956 9.40567C4.37214 9.53715 4.10083 9.75981 3.90995 10.0455C3.71907 10.3312 3.61719 10.667 3.61719 11.0106C3.61719 11.4713 3.80021 11.9132 4.12599 12.239C4.45177 12.5647 4.89362 12.7478 5.35434 12.7478ZM5.35434 10.4315C5.46887 10.4315 5.58082 10.4655 5.67605 10.5291C5.77127 10.5928 5.84549 10.6832 5.88932 10.789C5.93315 10.8948 5.94461 11.0112 5.92227 11.1236C5.89993 11.2359 5.84478 11.3391 5.7638 11.42C5.68282 11.501 5.57964 11.5562 5.46731 11.5785C5.35499 11.6009 5.23856 11.5894 5.13275 11.5456C5.02694 11.5017 4.93651 11.4275 4.87288 11.3323C4.80925 11.2371 4.77529 11.1251 4.77529 11.0106C4.77529 10.857 4.8363 10.7097 4.94489 10.6011C5.05349 10.4926 5.20077 10.4315 5.35434 10.4315Z" fill="#FEA851"/>
<path d="M16.9352 10.4258H8.24946C8.09589 10.4258 7.9486 10.4868 7.84001 10.5954C7.73142 10.704 7.67041 10.8513 7.67041 11.0048C7.67041 11.1584 7.73142 11.3057 7.84001 11.4143C7.9486 11.5229 8.09589 11.5839 8.24946 11.5839H16.9352C17.0888 11.5839 17.2361 11.5229 17.3447 11.4143C17.4533 11.3057 17.5143 11.1584 17.5143 11.0048C17.5143 10.8513 17.4533 10.704 17.3447 10.5954C17.2361 10.4868 17.0888 10.4258 16.9352 10.4258Z" fill="#FEA851"/>
<path d="M16.9354 14.4805H4.19624C4.04267 14.4805 3.89538 14.5415 3.78679 14.6501C3.67819 14.7587 3.61719 14.9059 3.61719 15.0595C3.61719 15.2131 3.67819 15.3604 3.78679 15.469C3.89538 15.5776 4.04267 15.6386 4.19624 15.6386H16.9354C17.089 15.6386 17.2363 15.5776 17.3448 15.469C17.4534 15.3604 17.5144 15.2131 17.5144 15.0595C17.5144 14.9059 17.4534 14.7587 17.3448 14.6501C17.2363 14.5415 17.089 14.4805 16.9354 14.4805Z" fill="#FEA851"/>
<path d="M7.0915 20.8504C7.0915 20.5069 6.98962 20.171 6.79874 19.8853C6.60786 19.5997 6.33655 19.377 6.01913 19.2455C5.7017 19.114 5.35242 19.0796 5.01544 19.1467C4.67847 19.2137 4.36894 19.3791 4.12599 19.6221C3.88304 19.865 3.7176 20.1746 3.65057 20.5115C3.58354 20.8485 3.61794 21.1978 3.74942 21.5152C3.8809 21.8326 4.10356 22.104 4.38923 22.2948C4.67491 22.4857 5.01077 22.5876 5.35435 22.5876C5.81507 22.5876 6.25692 22.4046 6.5827 22.0788C6.90848 21.753 7.0915 21.3112 7.0915 20.8504ZM4.77529 20.8504C4.77529 20.7359 4.80925 20.624 4.87288 20.5287C4.93651 20.4335 5.02694 20.3593 5.13275 20.3155C5.23856 20.2716 5.35499 20.2602 5.46731 20.2825C5.57964 20.3049 5.68282 20.36 5.7638 20.441C5.84478 20.522 5.89993 20.6251 5.92227 20.7375C5.94461 20.8498 5.93315 20.9662 5.88932 21.072C5.84549 21.1778 5.77128 21.2683 5.67605 21.3319C5.58083 21.3955 5.46887 21.4295 5.35435 21.4295C5.20077 21.4295 5.05349 21.3685 4.94489 21.2599C4.8363 21.1513 4.77529 21.004 4.77529 20.8504Z" fill="#FEA851"/>
<path d="M16.9352 20.2734H8.24946C8.09589 20.2734 7.9486 20.3344 7.84001 20.443C7.73142 20.5516 7.67041 20.6989 7.67041 20.8525C7.67041 21.0061 7.73142 21.1533 7.84001 21.2619C7.9486 21.3705 8.09589 21.4315 8.24946 21.4315H16.9352C17.0888 21.4315 17.2361 21.3705 17.3447 21.2619C17.4533 21.1533 17.5143 21.0061 17.5143 20.8525C17.5143 20.6989 17.4533 20.5516 17.3447 20.443C17.2361 20.3344 17.0888 20.2734 16.9352 20.2734Z" fill="#FEA851"/>
<path d="M16.9354 24.3242H4.19624C4.04267 24.3242 3.89538 24.3852 3.78679 24.4938C3.67819 24.6024 3.61719 24.7497 3.61719 24.9033C3.61719 25.0568 3.67819 25.2041 3.78679 25.3127C3.89538 25.4213 4.04267 25.4823 4.19624 25.4823H16.9354C17.089 25.4823 17.2363 25.4213 17.3448 25.3127C17.4534 25.2041 17.5144 25.0568 17.5144 24.9033C17.5144 24.7497 17.4534 24.6024 17.3448 24.4938C17.2363 24.3852 17.089 24.3242 16.9354 24.3242Z" fill="#FEA851"/>
</svg>
