<svg width="72" height="70" viewBox="0 0 72 70" fill="none" xmlns="http://www.w3.org/2000/svg">
<path d="M15.677 38.3859H69.8726C70.065 38.3858 70.2541 38.3365 70.4221 38.2428C70.5901 38.149 70.7314 38.0139 70.8325 37.8502C70.9336 37.6866 70.9913 37.4998 70.9999 37.3076C71.0086 37.1154 70.968 36.9242 70.882 36.7521L61.8494 18.6869C61.7557 18.4994 61.6116 18.3416 61.4333 18.2314C61.2551 18.1211 61.0496 18.0626 60.84 18.0625H24.7096C24.4997 18.0624 24.2941 18.1208 24.1156 18.2311C23.9371 18.3413 23.7928 18.4992 23.699 18.6869L14.6664 36.7521C14.5804 36.9243 14.5398 37.1156 14.5485 37.3079C14.5572 37.5001 14.6149 37.687 14.7162 37.8507C14.8175 38.0144 14.9589 38.1495 15.127 38.2432C15.2952 38.3368 15.4845 38.386 15.677 38.3859Z" fill="#FEE05A"/>
<path d="M67.6139 63.2227H17.9346C17.0362 63.2227 16.1747 63.5795 15.5395 64.2148C14.9042 64.85 14.5474 65.7115 14.5474 66.6099C14.5474 67.5082 14.9042 68.3698 15.5395 69.005C16.1747 69.6402 17.0362 69.9971 17.9346 69.9971H67.6139C68.5122 69.9971 69.3738 69.6402 70.009 69.005C70.6443 68.3698 71.0011 67.5082 71.0011 66.6099C71.0011 65.7115 70.6443 64.85 70.009 64.2148C69.3738 63.5795 68.5122 63.2227 67.6139 63.2227Z" fill="#FEE05A"/>
<path d="M65.3569 60.9679V40.6445H20.1938V60.9679H65.3569ZM52.937 45.1608C52.937 44.5619 53.1749 43.9876 53.5984 43.5641C54.0219 43.1406 54.5963 42.9027 55.1952 42.9027C55.7941 42.9027 56.3685 43.1406 56.7919 43.5641C57.2154 43.9876 57.4533 44.5619 57.4533 45.1608V49.6771H52.937V45.1608ZM52.937 54.1934C52.937 53.5945 53.1749 53.0202 53.5984 52.5967C54.0219 52.1732 54.5963 51.9353 55.1952 51.9353C55.7941 51.9353 56.3685 52.1732 56.7919 52.5967C57.2154 53.0202 57.4533 53.5945 57.4533 54.1934V58.7097H52.937V54.1934ZM40.5172 45.1608C40.5172 44.5619 40.7551 43.9876 41.1786 43.5641C41.6021 43.1406 42.1765 42.9027 42.7754 42.9027C43.3743 42.9027 43.9486 43.1406 44.3721 43.5641C44.7956 43.9876 45.0335 44.5619 45.0335 45.1608V49.6771H40.5172V45.1608ZM40.5172 54.1934C40.5172 53.5945 40.7551 53.0202 41.1786 52.5967C41.6021 52.1732 42.1765 51.9353 42.7754 51.9353C43.3743 51.9353 43.9486 52.1732 44.3721 52.5967C44.7956 53.0202 45.0335 53.5945 45.0335 54.1934V58.7097H40.5172V54.1934ZM28.0974 45.1608C28.0974 44.5619 28.3353 43.9876 28.7588 43.5641C29.1823 43.1406 29.7566 42.9027 30.3555 42.9027C30.9544 42.9027 31.5288 43.1406 31.9523 43.5641C32.3758 43.9876 32.6137 44.5619 32.6137 45.1608V49.6771H28.0974V45.1608ZM28.0974 54.1934C28.0974 53.5945 28.3353 53.0202 28.7588 52.5967C29.1823 52.1732 29.7566 51.9353 30.3555 51.9353C30.9544 51.9353 31.5288 52.1732 31.9523 52.5967C32.3758 53.0202 32.6137 53.5945 32.6137 54.1934V58.7097H28.0974V54.1934Z" fill="#FEE05A"/>
<path d="M56.3232 20.3213H53.5999C52.5568 14.6174 49.5463 9.45986 45.0926 5.74673C40.6389 2.03359 35.024 0 29.2254 0C23.4269 0 17.812 2.03359 13.3582 5.74673C8.90449 9.45986 5.89402 14.6174 4.85094 20.3213H2.12761C1.82816 20.3213 1.54098 20.4403 1.32923 20.652C1.11749 20.8638 0.998535 21.1509 0.998535 21.4504V27.0958C0.998535 27.3952 1.11749 27.6824 1.32923 27.8941C1.54098 28.1059 1.82816 28.2248 2.12761 28.2248H5.89308C6.67287 33.8588 9.46488 39.0204 13.7535 42.7563C18.0422 46.4922 23.5377 48.5502 29.2254 48.5502C34.9131 48.5502 40.4087 46.4922 44.6973 42.7563C48.986 39.0204 51.778 33.8588 52.5578 28.2248H56.3232C56.6227 28.2248 56.9099 28.1059 57.1216 27.8941C57.3333 27.6824 57.4523 27.3952 57.4523 27.0958V21.4504C57.4523 21.1509 57.3333 20.8638 57.1216 20.652C56.9099 20.4403 56.6227 20.3213 56.3232 20.3213ZM25.8382 2.53612C28.0809 2.16277 30.3699 2.16277 32.6126 2.53612V12.4178C32.6126 13.3161 32.2558 14.1777 31.6205 14.8129C30.9853 15.4481 30.1238 15.805 29.2254 15.805C28.3271 15.805 27.4655 15.4481 26.8303 14.8129C26.1951 14.1777 25.8382 13.3161 25.8382 12.4178V2.53612ZM23.58 2.99904V12.4178C23.58 13.915 24.1748 15.351 25.2335 16.4097C26.2922 17.4684 27.7282 18.0632 29.2254 18.0632C30.7227 18.0632 32.1586 17.4684 33.2173 16.4097C34.276 15.351 34.8708 13.915 34.8708 12.4178V2.99904C38.9487 4.07451 42.6462 6.26499 45.5486 9.32472C48.451 12.3844 50.4434 16.1924 51.3022 20.3213H7.14861C8.00748 16.1924 9.99987 12.3844 12.9022 9.32472C15.8046 6.26499 19.5022 4.07451 23.58 2.99904ZM29.2254 46.2901C24.1313 46.3097 19.2003 44.495 15.3342 41.1778C11.4681 37.8607 8.92516 33.2628 8.17042 28.2248H50.2849C49.5301 33.2635 46.9865 37.8621 43.1194 41.1793C39.2523 44.4966 34.3203 46.3107 29.2254 46.2901ZM55.1941 25.9667H3.25669V22.5795H55.1941V25.9667Z" fill="#FEA851"/>
<path d="M29.2252 42.9035C33.7774 42.915 38.163 41.1914 41.4892 38.0834C41.6933 37.876 41.8095 37.5979 41.8134 37.3069C41.8174 37.016 41.709 36.7347 41.5106 36.5218C41.3123 36.3089 41.0394 36.1808 40.7489 36.1642C40.4584 36.1476 40.1727 36.2438 39.9514 36.4327C37.0372 39.1405 33.2065 40.6455 29.2286 40.6455C25.2506 40.6455 21.4199 39.1405 18.5057 36.4327C18.2868 36.2284 17.9957 36.1193 17.6964 36.1296C17.3971 36.1398 17.1141 36.2686 16.9098 36.4875C16.7054 36.7064 16.5964 36.9975 16.6066 37.2968C16.6169 37.5961 16.7456 37.8791 16.9645 38.0834C20.2899 41.1906 24.6741 42.9141 29.2252 42.9035Z" fill="#FEA851"/>
</svg>
