<svg width="37" height="25" viewBox="0 0 37 25" fill="none" xmlns="http://www.w3.org/2000/svg">
<path d="M10.0515 13.5352C10.2365 13.5352 10.3865 13.6851 10.3865 13.8702V15.6652C10.3865 15.8502 10.2365 16.0002 10.0515 16.0002H6.48935C6.30434 16.0002 6.15435 16.1502 6.15435 16.3352V17.8439C6.15435 18.0289 6.30434 18.1789 6.48935 18.1789H9.48967C9.67469 18.1789 9.82467 18.3289 9.82467 18.5139V20.1658C9.82467 20.3508 9.67469 20.5008 9.48967 20.5008H6.48935C6.30434 20.5008 6.15435 20.6508 6.15435 20.8358V24.5233C6.15435 24.7083 6.00436 24.8583 5.81935 24.8583H4.15483C3.96981 24.8583 3.81982 24.7083 3.81982 24.5233V13.8702C3.81982 13.6851 3.96981 13.5352 4.15483 13.5352H10.0515Z" fill="#FEE05A"/>
<path d="M11.7742 24.8583C11.5892 24.8583 11.4392 24.7083 11.4392 24.5233V13.8702C11.4392 13.6851 11.5892 13.5352 11.7742 13.5352H16.0708C16.953 13.5352 17.6729 13.8161 18.2306 14.378C18.7965 14.9293 19.0795 15.7404 19.0795 16.8112C19.0795 17.8409 18.7987 18.6299 18.2372 19.1783C18.0401 19.3707 18.0619 19.7515 18.2596 19.9433C18.5385 20.2136 18.7285 20.5797 18.8298 21.0415C18.938 21.508 19.0295 22.3085 19.1045 23.4429C19.1045 23.4747 19.1086 23.5489 19.1169 23.6656C19.1234 23.7483 19.1274 23.8116 19.1288 23.8556C19.1295 23.8773 19.1317 23.8989 19.1349 23.9203C19.1414 23.9624 19.1479 24.0207 19.1544 24.0949C19.1609 24.1616 19.1675 24.2184 19.174 24.2654C19.1774 24.2895 19.1841 24.3131 19.1918 24.3362C19.2043 24.374 19.2168 24.4208 19.2293 24.4766C19.2451 24.5469 19.2646 24.6125 19.2878 24.6733C19.2904 24.68 19.2933 24.6858 19.2971 24.6919C19.3428 24.7656 19.2876 24.8583 19.2009 24.8583H17.2742C17.1297 24.8583 17 24.7659 16.9655 24.6256C16.9311 24.4858 16.9033 24.3355 16.8823 24.1745C16.849 23.9094 16.824 23.5913 16.8074 23.2203C16.7907 22.8492 16.7782 22.6053 16.7699 22.4887C16.7117 21.8102 16.566 21.3331 16.333 21.0574C16.0999 20.7818 15.7171 20.6439 15.1844 20.6439H14.0963C13.9112 20.6439 13.7613 20.7939 13.7613 20.9789V24.5233C13.7613 24.7083 13.6113 24.8583 13.4263 24.8583H11.7742ZM13.7613 18.2097C13.7613 18.3947 13.9112 18.5447 14.0963 18.5447H15.3967C15.8378 18.5447 16.179 18.4493 16.4204 18.2584C16.6701 18.0676 16.7949 17.6965 16.7949 17.1452C16.7949 16.2652 16.3205 15.8252 15.3717 15.8252H14.0963C13.9112 15.8252 13.7613 15.9752 13.7613 16.1602V18.2097Z" fill="#FEE05A"/>
<path d="M27.2546 13.5352C27.4396 13.5352 27.5896 13.6851 27.5896 13.8702V15.5856C27.5896 15.7707 27.4396 15.9206 27.2546 15.9206H23.1183C22.9332 15.9206 22.7833 16.0706 22.7833 16.2557V17.5417C22.7833 17.7268 22.9332 17.8768 23.1183 17.8768H26.8427C27.0277 17.8768 27.1777 18.0267 27.1777 18.2118V19.8318C27.1777 20.0168 27.0277 20.1668 26.8427 20.1668H23.1183C22.9332 20.1668 22.7833 20.3168 22.7833 20.5018V22.0424C22.7833 22.2274 22.9332 22.3774 23.1183 22.3774H27.367C27.552 22.3774 27.702 22.5274 27.702 22.7124V24.5233C27.702 24.7083 27.552 24.8583 27.367 24.8583H20.8087C20.6237 24.8583 20.4737 24.7083 20.4737 24.5233V13.8702C20.4737 13.6851 20.6237 13.5352 20.8087 13.5352H27.2546Z" fill="#FEE05A"/>
<path d="M35.8009 13.5352C35.9859 13.5352 36.1359 13.6851 36.1359 13.8702V15.5856C36.1359 15.7707 35.9859 15.9206 35.8009 15.9206H31.6645C31.4795 15.9206 31.3295 16.0706 31.3295 16.2557V17.5417C31.3295 17.7268 31.4795 17.8768 31.6645 17.8768H35.3889C35.5739 17.8768 35.7239 18.0267 35.7239 18.2118V19.8318C35.7239 20.0168 35.5739 20.1668 35.3889 20.1668H31.6645C31.4795 20.1668 31.3295 20.3168 31.3295 20.5018V22.0424C31.3295 22.2274 31.4795 22.3774 31.6645 22.3774H35.9132C36.0982 22.3774 36.2482 22.5274 36.2482 22.7124V24.5233C36.2482 24.7083 36.0982 24.8583 35.9132 24.8583H29.3549C29.1699 24.8583 29.0199 24.7083 29.0199 24.5233V13.8702C29.0199 13.6851 29.1699 13.5352 29.3549 13.5352H35.8009Z" fill="#FEE05A"/>
<path d="M24.3883 0H1.60802C1.18155 0 0.772541 0.169416 0.470978 0.470978C0.169416 0.77254 0 1.18155 0 1.60802L0 15.5442C0 15.9707 0.169416 16.3797 0.470978 16.6812C0.772541 16.9828 1.18155 17.1522 1.60802 17.1522H24.3883C24.8148 17.1522 25.2238 16.9828 25.5253 16.6812C25.8269 16.3797 25.9963 15.9707 25.9963 15.5442V1.60802C25.9963 1.18155 25.8269 0.77254 25.5253 0.470978C25.2238 0.169416 24.8148 0 24.3883 0V0ZM1.07201 4.80423H24.9243V6.91449H1.07201V4.80423ZM24.9243 15.5442C24.9243 15.6864 24.8678 15.8227 24.7673 15.9232C24.6668 16.0237 24.5305 16.0802 24.3883 16.0802H1.60802C1.46586 16.0802 1.32953 16.0237 1.22901 15.9232C1.12849 15.8227 1.07201 15.6864 1.07201 15.5442V7.9865H24.9243V15.5442ZM24.9243 3.73221H1.07201V1.60802C1.07201 1.46586 1.12849 1.32953 1.22901 1.22901C1.32953 1.12849 1.46586 1.07201 1.60802 1.07201H24.3883C24.5305 1.07201 24.6668 1.12849 24.7673 1.22901C24.8678 1.32953 24.9243 1.46586 24.9243 1.60802V3.73221Z" fill="#FEA851"/>
<path d="M17.6888 15.0124C18.2673 15.0105 18.8293 14.8197 19.2893 14.4689C19.687 14.77 20.1607 14.9542 20.6573 15.0007C21.1539 15.0473 21.6536 14.9543 22.1003 14.7323C22.5469 14.5102 22.9227 14.168 23.1854 13.744C23.4482 13.32 23.5873 12.8312 23.5873 12.3324C23.5873 11.8336 23.4482 11.3447 23.1854 10.9208C22.9227 10.4968 22.5469 10.1545 22.1003 9.9325C21.6536 9.71048 21.1539 9.6175 20.6573 9.66403C20.1607 9.71056 19.687 9.89474 19.2893 10.1959C18.8293 9.84515 18.2673 9.65431 17.6888 9.65234C16.978 9.65234 16.2964 9.9347 15.7938 10.4373C15.2911 10.9399 15.0088 11.6216 15.0088 12.3324C15.0088 13.0432 15.2911 13.7248 15.7938 14.2274C16.2964 14.7301 16.978 15.0124 17.6888 15.0124ZM20.0044 11.0074C20.2458 10.8414 20.528 10.7446 20.8205 10.7274C21.113 10.7102 21.4046 10.7732 21.6638 10.9096C21.9231 11.046 22.1402 11.2507 22.2916 11.5015C22.4431 11.7523 22.5231 12.0397 22.5231 12.3326C22.5231 12.6256 22.4431 12.913 22.2916 13.1638C22.1402 13.4146 21.9231 13.6193 21.6638 13.7557C21.4046 13.8921 21.113 13.9551 20.8205 13.9379C20.528 13.9207 20.2458 13.8238 20.0044 13.6579C20.2431 13.2571 20.3691 12.7992 20.3691 12.3326C20.3691 11.8661 20.2431 11.4082 20.0044 11.0074ZM17.6888 10.7244C18.0069 10.7244 18.3178 10.8187 18.5822 10.9954C18.8466 11.172 19.0527 11.4232 19.1744 11.717C19.2961 12.0108 19.328 12.3342 19.2659 12.6461C19.2039 12.958 19.0507 13.2445 18.8259 13.4694C18.601 13.6943 18.3145 13.8475 18.0025 13.9095C17.6906 13.9715 17.3673 13.9397 17.0735 13.818C16.7796 13.6963 16.5285 13.4902 16.3518 13.2257C16.1751 12.9613 16.0808 12.6504 16.0808 12.3324C16.0808 11.9059 16.2502 11.4969 16.5518 11.1953C16.8533 10.8938 17.2623 10.7244 17.6888 10.7244Z" fill="#FEA851"/>
</svg>
