<svg width="70" height="70" viewBox="0 0 70 70" fill="none" xmlns="http://www.w3.org/2000/svg">
<path d="M66.6128 13.5469H23.7094C22.8111 13.5469 21.9495 13.9037 21.3143 14.5389C20.6791 15.1741 20.3223 16.0357 20.3223 16.934V32.7405C20.3223 33.6388 20.6791 34.5003 21.3143 35.1355C21.9495 35.7708 22.8111 36.1276 23.7094 36.1276H37.9194L44.3628 42.571C44.5207 42.7289 44.7219 42.8364 44.9409 42.8799C45.1599 42.9235 45.3868 42.9011 45.5931 42.8157C45.7994 42.7302 45.9757 42.5856 46.0998 42.3999C46.2238 42.2143 46.2901 41.9961 46.2901 41.7728V36.1276H66.6128C67.5111 36.1276 68.3726 35.7708 69.0078 35.1355C69.643 34.5003 69.9999 33.6388 69.9999 32.7405V16.934C69.9999 16.0357 69.643 15.1741 69.0078 14.5389C68.3726 13.9037 67.5111 13.5469 66.6128 13.5469ZM62.0966 29.3534H38.3869C38.0874 29.3534 37.8002 29.2344 37.5885 29.0227C37.3768 28.811 37.2578 28.5238 37.2578 28.2244C37.2578 27.9249 37.3768 27.6377 37.5885 27.426C37.8002 27.2143 38.0874 27.0953 38.3869 27.0953H62.0966C62.3961 27.0953 62.6832 27.2143 62.895 27.426C63.1067 27.6377 63.2257 27.9249 63.2257 28.2244C63.2257 28.5238 63.1067 28.811 62.895 29.0227C62.6832 29.2344 62.3961 29.3534 62.0966 29.3534ZM62.0966 22.5792H28.2255C27.9261 22.5792 27.6389 22.4602 27.4272 22.2485C27.2154 22.0367 27.0965 21.7496 27.0965 21.4501C27.0965 21.1507 27.2154 20.8635 27.4272 20.6518C27.6389 20.44 27.9261 20.3211 28.2255 20.3211H62.0966C62.3961 20.3211 62.6832 20.44 62.895 20.6518C63.1067 20.8635 63.2257 21.1507 63.2257 21.4501C63.2257 21.7496 63.1067 22.0367 62.895 22.2485C62.6832 22.4602 62.3961 22.5792 62.0966 22.5792Z" fill="#FEE05A"/>
<path d="M68.8711 67.7407H66.6131V65.4826C66.6108 63.2688 65.9585 61.1043 64.7372 59.2578C63.5159 57.4112 61.7793 55.964 59.7429 55.0955C61.1459 54.1489 62.208 52.7769 62.7729 51.1814C63.3377 49.5859 63.3754 47.8513 62.8805 46.2328C62.3856 44.6142 61.3841 43.1974 60.0236 42.1907C58.663 41.184 57.0152 40.6406 55.3227 40.6406C53.6302 40.6406 51.9824 41.184 50.6218 42.1907C49.2613 43.1974 48.2598 44.6142 47.7649 46.2328C47.27 47.8513 47.3077 49.5859 47.8725 51.1814C48.4374 52.7769 49.4995 54.1489 50.9025 55.0955C48.8661 55.964 47.1295 57.4112 45.9082 59.2578C44.6869 61.1043 44.0346 63.2688 44.0323 65.4826V67.7407H14.6774C14.3779 67.7407 14.0908 67.8596 13.879 68.0714C13.6673 68.2831 13.5483 68.5703 13.5483 68.8697C13.5483 69.1692 13.6673 69.4564 13.879 69.6681C14.0908 69.8798 14.3779 69.9988 14.6774 69.9988H68.8711C69.1706 69.9988 69.4578 69.8798 69.6695 69.6681C69.8812 69.4564 70.0002 69.1692 70.0002 68.8697C70.0002 68.5703 69.8812 68.2831 69.6695 68.0714C69.4578 67.8596 69.1706 67.7407 68.8711 67.7407Z" fill="#FEE05A"/>
<path d="M53.0647 0H3.38711C2.48879 0 1.62727 0.356855 0.992062 0.992062C0.356855 1.62727 0 2.48879 0 3.38711V19.1936C0 20.0919 0.356855 20.9535 0.992062 21.5887C1.62727 22.2239 2.48879 22.5807 3.38711 22.5807H27.0969V28.2259C27.0969 28.4492 27.1632 28.6674 27.2872 28.8531C27.4113 29.0387 27.5876 29.1834 27.7939 29.2688C28.0002 29.3542 28.2271 29.3766 28.4461 29.333C28.6651 29.2895 28.8663 29.182 29.0242 29.0242L35.4676 22.5807H53.0647C53.9631 22.5807 54.8246 22.2239 55.4598 21.5887C56.095 20.9535 56.4518 20.0919 56.4518 19.1936V3.38711C56.4518 2.48879 56.095 1.62727 55.4598 0.992062C54.8246 0.356855 53.9631 0 53.0647 0ZM54.1938 19.1936C54.1938 19.4931 54.0748 19.7802 53.8631 19.992C53.6513 20.2037 53.3642 20.3227 53.0647 20.3227H35.0001C34.7007 20.3227 34.4136 20.4417 34.2019 20.6535L29.355 25.5004V21.4517C29.355 21.1523 29.236 20.8651 29.0243 20.6534C28.8125 20.4416 28.5254 20.3227 28.2259 20.3227H3.38711C3.08767 20.3227 2.8005 20.2037 2.58876 19.992C2.37703 19.7802 2.25807 19.4931 2.25807 19.1936V3.38711C2.25807 3.08767 2.37703 2.8005 2.58876 2.58876C2.8005 2.37703 3.08767 2.25807 3.38711 2.25807H53.0647C53.3642 2.25807 53.6513 2.37703 53.8631 2.58876C54.0748 2.8005 54.1938 3.08767 54.1938 3.38711V19.1936Z" fill="#FEA851"/>
<path d="M48.5483 6.77344H7.90296C7.60352 6.77344 7.31635 6.89239 7.10461 7.10412C6.89288 7.31586 6.77393 7.60304 6.77393 7.90247C6.77393 8.20191 6.89288 8.48909 7.10461 8.70082C7.31635 8.91256 7.60352 9.03151 7.90296 9.03151H48.5483C48.8477 9.03151 49.1349 8.91256 49.3466 8.70082C49.5584 8.48909 49.6773 8.20191 49.6773 7.90247C49.6773 7.60304 49.5584 7.31586 49.3466 7.10412C49.1349 6.89239 48.8477 6.77344 48.5483 6.77344Z" fill="#FEA851"/>
<path d="M34.9998 13.5469H7.90296C7.60352 13.5469 7.31635 13.6658 7.10461 13.8776C6.89288 14.0893 6.77393 14.3765 6.77393 14.6759C6.77393 14.9754 6.89288 15.2625 7.10461 15.4743C7.31635 15.686 7.60352 15.8049 7.90296 15.8049H34.9998C35.2993 15.8049 35.5865 15.686 35.7982 15.4743C36.0099 15.2625 36.1289 14.9754 36.1289 14.6759C36.1289 14.3765 36.0099 14.0893 35.7982 13.8776C35.5865 13.6658 35.2993 13.5469 34.9998 13.5469Z" fill="#FEA851"/>
<path d="M41.7739 56.4519C42.0733 56.4519 42.3605 56.333 42.5722 56.1212C42.784 55.9095 42.9029 55.6223 42.9029 55.3229C42.9029 55.0234 42.784 54.7362 42.5722 54.5245C42.3605 54.3128 42.0733 54.1938 41.7739 54.1938H25.9674V51.9358C25.9651 49.7219 25.3128 47.5574 24.0915 45.7109C22.8702 43.8644 21.1336 42.4171 19.0972 41.5486C20.5002 40.602 21.5623 39.23 22.1272 37.6345C22.692 36.0391 22.7297 34.3044 22.2348 32.6859C21.7399 31.0674 20.7384 29.6505 19.3779 28.6438C18.0173 27.6371 16.3695 27.0937 14.677 27.0938C12.9845 27.0937 11.3367 27.6371 9.97613 28.6438C8.61557 29.6505 7.61413 31.0674 7.1192 32.6859C6.62427 34.3044 6.662 36.0391 7.22683 37.6345C7.79167 39.23 8.85377 40.602 10.2568 41.5486C8.2204 42.4171 6.48381 43.8644 5.26249 45.7109C4.04118 47.5574 3.38892 49.7219 3.38662 51.9358V54.1938H1.12855C0.829109 54.1938 0.541934 54.3128 0.330199 54.5245C0.118463 54.7362 -0.000488281 55.0234 -0.000488281 55.3229C-0.000488281 55.6223 0.118463 55.9095 0.330199 56.1212C0.541934 56.333 0.829109 56.4519 1.12855 56.4519H41.7739ZM9.03181 35.0002C9.03181 33.8837 9.36289 32.7922 9.98319 31.8639C10.6035 30.9356 11.4852 30.212 12.5167 29.7847C13.5482 29.3575 14.6833 29.2457 15.7783 29.4635C16.8734 29.6813 17.8792 30.219 18.6687 31.0084C19.4582 31.7979 19.9959 32.8038 20.2137 33.8989C20.4315 34.9939 20.3197 36.129 19.8925 37.1605C19.4652 38.192 18.7416 39.0737 17.8133 39.694C16.8849 40.3143 15.7935 40.6454 14.677 40.6454C13.1803 40.6436 11.7455 40.0483 10.6872 38.99C9.62893 37.9317 9.0336 36.4968 9.03181 35.0002ZM5.6447 51.9358C5.6447 49.5402 6.59631 47.2428 8.29019 45.549C9.98408 43.8551 12.2815 42.9035 14.677 42.9035C17.0725 42.9035 19.3699 43.8551 21.0638 45.549C22.7577 47.2428 23.7093 49.5402 23.7093 51.9358V54.1938H5.6447V51.9358Z" fill="#FEA851"/>
</svg>
