<svg width="20" height="28" viewBox="0 0 20 28" fill="none" xmlns="http://www.w3.org/2000/svg">
<path d="M9.64874 0C4.32843 0 0 4.32843 0 9.64874C0 11.4463 0.497929 13.2006 1.44029 14.7225L9.09951 27.0652C9.24623 27.3017 9.50471 27.4453 9.7827 27.4453C9.78484 27.4453 9.78693 27.4453 9.78908 27.4453C10.0695 27.4431 10.3285 27.295 10.4725 27.0544L17.9365 14.5921C18.8269 13.1023 19.2975 11.393 19.2975 9.64874C19.2975 4.32843 14.9691 0 9.64874 0ZM16.5565 13.7665L9.77053 25.0967L2.80709 13.8752C2.0227 12.6084 1.5974 11.147 1.5974 9.64874C1.5974 5.21515 5.21515 1.5974 9.64874 1.5974C14.0823 1.5974 17.6947 5.21515 17.6947 9.64874C17.6947 11.1025 17.2975 12.5266 16.5565 13.7665Z" fill="#131313"/>
<path d="M9.64908 4.82422C6.98892 4.82422 4.82471 6.98843 4.82471 9.64859C4.82471 12.2918 6.9537 14.473 9.64908 14.473C12.3777 14.473 14.4734 12.2627 14.4734 9.64859C14.4734 6.98843 12.3092 4.82422 9.64908 4.82422ZM9.64908 12.8756C7.86637 12.8756 6.42211 11.4265 6.42211 9.64859C6.42211 7.87515 7.87564 6.42162 9.64908 6.42162C11.4225 6.42162 12.8707 7.87515 12.8707 9.64859C12.8707 11.4005 11.46 12.8756 9.64908 12.8756Z" fill="#131313"/>
</svg>
