<svg width="36" height="36" viewBox="0 0 36 36" fill="none" xmlns="http://www.w3.org/2000/svg">
<path d="M24.2222 35.7955L23.3028 35.1363C20.1311 32.8555 17.5467 29.8536 15.7626 26.378C13.9786 22.9025 13.0459 19.0528 13.0415 15.146C13.0415 15.0451 13.0687 14.946 13.1204 14.8592C13.172 14.7724 13.2461 14.7012 13.3349 14.653L24.2031 8.76309C24.2852 8.71861 24.3771 8.69531 24.4704 8.69531C24.5638 8.69531 24.6556 8.71861 24.7377 8.76309L35.6065 14.653C35.709 14.7123 35.7915 14.8007 35.8437 14.9069C35.896 15.0131 35.9155 15.1325 35.8999 15.2498C35.8936 19.1277 34.9737 22.9495 33.2146 26.4054C31.4556 29.8614 28.907 32.8543 25.7755 35.1414L24.8779 35.7938C24.7826 35.8628 24.668 35.9001 24.5503 35.9004C24.4327 35.9007 24.3179 35.864 24.2222 35.7955ZM14.1656 15.4787C14.2221 19.1506 15.137 22.7584 16.8371 26.0134C18.5373 29.2685 20.9755 32.0806 23.9569 34.2248L24.547 34.6478L25.1152 34.2344C28.0731 32.0746 30.4866 29.2549 32.164 25.9992C33.8413 22.7435 34.7364 19.1414 34.778 15.4792L24.4701 9.89395L14.1656 15.4787Z" fill="#FEE05A"/>
<path d="M33.3289 15.9775L24.7375 11.3217C24.6554 11.2772 24.5636 11.2539 24.4702 11.2539C24.3769 11.2539 24.285 11.2772 24.2029 11.3217L15.6205 15.9741C15.5265 16.025 15.4491 16.1017 15.3972 16.1951C15.3453 16.2885 15.3212 16.3948 15.3277 16.5014C15.5214 19.7334 16.4154 22.8846 17.9478 25.7368C19.4802 28.589 21.6143 31.0739 24.2024 33.0195C24.3002 33.0931 24.4195 33.1327 24.5419 33.1322C24.6644 33.1317 24.7833 33.0911 24.8805 33.0167C27.4429 31.0577 29.5508 28.5673 31.0597 25.7166C32.5686 22.8659 33.4426 19.7224 33.6217 16.502C33.6276 16.3958 33.6033 16.2901 33.5514 16.1972C33.4996 16.1044 33.4224 16.0282 33.3289 15.9775ZM28.9816 19.3039L23.2493 24.2862C23.1386 24.3831 22.9943 24.4327 22.8474 24.4242C22.7005 24.4157 22.5628 24.3498 22.464 24.2407L19.9173 21.4495C19.8661 21.3954 19.8261 21.3316 19.7998 21.2619C19.7735 21.1921 19.7613 21.1178 19.764 21.0434C19.7667 20.9689 19.7843 20.8957 19.8156 20.828C19.8469 20.7604 19.8914 20.6997 19.9464 20.6494C20.0015 20.5992 20.066 20.5604 20.1362 20.5354C20.2064 20.5104 20.2809 20.4996 20.3554 20.5037C20.4298 20.5077 20.5026 20.5266 20.5697 20.5592C20.6367 20.5918 20.6966 20.6374 20.7458 20.6933L22.9234 23.0802L28.2428 18.4552C28.3551 18.3576 28.5016 18.3086 28.6501 18.319C28.7985 18.3294 28.9367 18.3984 29.0343 18.5107C29.1319 18.623 29.1809 18.7695 29.1705 18.918C29.1601 19.0664 29.0911 19.2046 28.9788 19.3022L28.9816 19.3039Z" fill="#FEE05A"/>
<path d="M23.84 0H6.17036C5.27801 0.000891017 4.42246 0.355772 3.79147 0.986761C3.16048 1.61775 2.8056 2.4733 2.80471 3.36565V20.4744H0.560942C0.412171 20.4744 0.269493 20.5335 0.164296 20.6387C0.0590991 20.7439 0 20.8866 0 21.0353L0 23.84C0.000891017 24.7324 0.355772 25.5879 0.986761 26.2189C1.61775 26.8499 2.4733 27.2048 3.36565 27.2057H18.2306C19.123 27.2048 19.9785 26.8499 20.6095 26.2189C21.2405 25.5879 21.5954 24.7324 21.5963 23.84V6.73131H26.6448C26.7935 6.73131 26.9362 6.67221 27.0414 6.56701C27.1466 6.46181 27.2057 6.31914 27.2057 6.17036V3.36565C27.2048 2.4733 26.8499 1.61775 26.2189 0.986761C25.5879 0.355772 24.7324 0.000891017 23.84 0V0ZM3.36565 26.0838C2.77057 26.0838 2.19986 25.8474 1.77907 25.4266C1.35828 25.0058 1.12188 24.4351 1.12188 23.84V21.5963H14.865V23.84C14.8651 24.6692 15.1732 25.4688 15.7294 26.0838H3.36565ZM20.4744 3.36565V23.84C20.4744 24.4351 20.238 25.0058 19.8172 25.4266C19.3964 25.8474 18.8257 26.0838 18.2306 26.0838C17.6355 26.0838 17.0648 25.8474 16.644 25.4266C16.2232 25.0058 15.9869 24.4351 15.9869 23.84V21.0353C15.9869 20.8866 15.9278 20.7439 15.8226 20.6387C15.7174 20.5335 15.5747 20.4744 15.4259 20.4744H3.9266V3.36565C3.9266 2.77057 4.16299 2.19986 4.58378 1.77907C5.00457 1.35828 5.57528 1.12188 6.17036 1.12188H21.3382C20.7825 1.73712 20.4747 2.53659 20.4744 3.36565ZM26.0838 5.60942H21.5963V3.36565C21.5963 2.77057 21.8327 2.19986 22.2535 1.77907C22.6742 1.35828 23.245 1.12188 23.84 1.12188C24.4351 1.12188 25.0058 1.35828 25.4266 1.77907C25.8474 2.19986 26.0838 2.77057 26.0838 3.36565V5.60942Z" fill="#FEA851"/>
<path d="M5.5127 3.7875V7.31695C5.5127 7.46572 5.57179 7.6084 5.67699 7.7136C5.78219 7.8188 5.92487 7.87789 6.07364 7.87789H18.3274C18.4762 7.87789 18.6189 7.8188 18.7241 7.7136C18.8293 7.6084 18.8884 7.46572 18.8884 7.31695V3.7875C18.8884 3.63873 18.8293 3.49606 18.7241 3.39086C18.6189 3.28566 18.4762 3.22656 18.3274 3.22656H6.07364C5.92487 3.22656 5.78219 3.28566 5.67699 3.39086C5.57179 3.49606 5.5127 3.63873 5.5127 3.7875ZM6.63458 4.34845H17.7665V6.75601H6.63458V4.34845Z" fill="#FEA851"/>
<path d="M6.07364 11.0867H18.3269C18.4756 11.0867 18.6183 11.0276 18.7235 10.9224C18.8287 10.8172 18.8878 10.6746 18.8878 10.5258C18.8878 10.377 18.8287 10.2343 18.7235 10.1291C18.6183 10.0239 18.4756 9.96484 18.3269 9.96484H6.07364C5.92487 9.96484 5.78219 10.0239 5.67699 10.1291C5.57179 10.2343 5.5127 10.377 5.5127 10.5258C5.5127 10.6746 5.57179 10.8172 5.67699 10.9224C5.78219 11.0276 5.92487 11.0867 6.07364 11.0867Z" fill="#FEA851"/>
<path d="M18.4715 13.5625H6.21768C6.06891 13.5625 5.92623 13.6216 5.82103 13.7268C5.71584 13.832 5.65674 13.9747 5.65674 14.1234C5.65674 14.2722 5.71584 14.4149 5.82103 14.5201C5.92623 14.6253 6.06891 14.6844 6.21768 14.6844H18.4715C18.6202 14.6844 18.7629 14.6253 18.8681 14.5201C18.9733 14.4149 19.0324 14.2722 19.0324 14.1234C19.0324 13.9747 18.9733 13.832 18.8681 13.7268C18.7629 13.6216 18.6202 13.5625 18.4715 13.5625Z" fill="#FEA851"/>
<path d="M18.6154 17.1641H6.36221C6.21344 17.1641 6.07076 17.2232 5.96557 17.3284C5.86037 17.4336 5.80127 17.5762 5.80127 17.725C5.80127 17.8738 5.86037 18.0165 5.96557 18.1216C6.07076 18.2268 6.21344 18.2859 6.36221 18.2859H18.6154C18.7642 18.2859 18.9069 18.2268 19.0121 18.1216C19.1173 18.0165 19.1764 17.8738 19.1764 17.725C19.1764 17.5762 19.1173 17.4336 19.0121 17.3284C18.9069 17.2232 18.7642 17.1641 18.6154 17.1641Z" fill="#FEA851"/>
</svg>
