<svg width="54" height="49" viewBox="0 0 54 49" fill="none" xmlns="http://www.w3.org/2000/svg">
<path d="M26.9996 1.93359C13.1531 1.93359 1.92822 13.1583 1.92822 27.0049V32.7906H52.0711V27.0049C52.071 13.1584 40.8462 1.93359 26.9996 1.93359Z" fill="#FFDC64"/>
<path d="M53.0357 32.7908H15.4286C14.8961 32.7908 14.4643 32.359 14.4643 31.8265V27.0051C14.4643 22.4359 15.3136 18.1565 16.7939 14.4706C17.0184 13.9114 17.8427 14.0073 17.9451 14.6012L19.974 26.3685C20.1335 27.2935 20.9359 27.9694 21.8746 27.9694H32.1256C33.0643 27.9694 33.8665 27.2936 34.0262 26.3685L37.817 4.38216C34.5418 2.81341 30.8738 1.93359 27 1.93359C23.3071 1.93359 19.8056 2.74085 16.649 4.17449C16.6489 4.17364 16.6485 4.1727 16.6483 4.17185C16.6295 4.18039 16.1865 4.40167 16.1865 4.40167C7.75849 8.44133 1.9286 17.0347 1.9286 27.0049V32.7906H0.964301C0.431789 32.7906 0 33.2224 0 33.7549V34.9841C0 35.4012 0.260824 35.7738 0.657281 35.9035C7.55441 38.1587 16.8139 39.5408 27 39.5408C37.1861 39.5408 46.4456 38.1587 53.3427 35.9036C53.7392 35.774 54 35.4015 54 34.9842V33.755C54 33.2225 53.5682 32.7908 53.0357 32.7908Z" fill="#FFC850"/>
<path d="M28.9937 27.9642H25.0059C23.9666 27.9642 23.1143 27.1407 23.0786 26.102L22.2473 1.99494C22.2096 0.9045 23.0834 0 24.1746 0H29.825C30.9162 0 31.79 0.9045 31.7523 1.99494L30.921 26.102C30.8853 27.1407 30.033 27.9642 28.9937 27.9642Z" fill="#FFF082"/>
<path d="M53.3427 34.0453C46.4454 35.6562 37.186 36.6433 27 36.6433C16.814 36.6433 7.55441 35.6562 0.657281 34.0453C0.340875 33.9714 0.117914 33.7856 0.0378633 33.5626C0.0251016 33.6254 0 33.6838 0 33.7504V34.9797C0 35.3968 0.260824 35.7693 0.657281 35.8991C7.55441 38.1542 16.814 39.5362 27 39.5362C37.186 39.5362 46.4456 38.1542 53.3427 35.8991C53.7392 35.7693 54 35.3969 54 34.9797V33.7504C54 33.6838 53.9749 33.6254 53.9621 33.5625C53.8821 33.7856 53.6591 33.9714 53.3427 34.0453Z" fill="#FFDC64"/>
<path d="M25.6626 26.102L25.0725 1.99494C25.0457 0.9045 25.6663 0 26.4409 0H24.1751C23.0839 0 22.2101 0.9045 22.2478 1.99494L23.079 26.102C23.1147 27.1407 23.9672 27.9642 25.0064 27.9642H27.0312C26.2931 27.9642 25.688 27.1407 25.6626 26.102Z" fill="#FFDC64"/>
<path d="M0.230795 45.8804V43.1475C0.230795 42.725 0.335812 42.4002 0.545848 42.173C0.755883 41.9435 1.06117 41.8287 1.4617 41.8287C1.86223 41.8287 2.16752 41.9435 2.37755 42.173C2.58759 42.4002 2.6926 42.725 2.6926 43.1475V43.6604H1.9123V43.0962C1.9123 42.7519 1.77065 42.5797 1.48734 42.5797C1.2016 42.5797 1.05872 42.7519 1.05872 43.0962V45.9317C1.05872 46.2736 1.2016 46.4446 1.48734 46.4446C1.77065 46.4446 1.9123 46.2736 1.9123 45.9317V45.1807H2.6926V45.8804C2.6926 46.3029 2.58759 46.629 2.37755 46.8585C2.16752 47.0857 1.86223 47.1992 1.4617 47.1992C1.06117 47.1992 0.755883 47.0857 0.545848 46.8585C0.335812 46.629 0.230795 46.3029 0.230795 45.8804ZM3.32784 42.6383V41.8873H5.88123V42.6383H5.01667V47.1406H4.1924V42.6383H3.32784ZM6.61904 47.1406V41.8873H7.83529C8.24315 41.8873 8.54966 41.9984 8.75481 42.2207C8.9624 42.4429 9.0662 42.7653 9.0662 43.1878V43.8692C9.0662 44.2917 8.9624 44.6141 8.75481 44.8363C8.54966 45.0561 8.24315 45.166 7.83529 45.166H7.44331V47.1406H6.61904ZM7.44331 44.4187H7.83529C7.97206 44.4187 8.07342 44.3809 8.13936 44.3051C8.2053 44.2294 8.23827 44.1012 8.23827 43.9205V43.1329C8.23827 42.9521 8.2053 42.8251 8.13936 42.7519C8.07342 42.6762 7.97206 42.6383 7.83529 42.6383H7.44331V44.4187ZM9.75272 45.8804V43.1475C9.75272 42.7274 9.8614 42.4026 10.0788 42.173C10.2961 41.9435 10.6063 41.8287 11.0093 41.8287C11.4122 41.8287 11.7212 41.9435 11.9361 42.173C12.1535 42.4026 12.2622 42.7274 12.2622 43.1475V45.8804C12.2622 46.3005 12.1535 46.6253 11.9361 46.8549C11.7212 47.0845 11.4122 47.1992 11.0093 47.1992C10.6063 47.1992 10.2961 47.0845 10.0788 46.8549C9.8614 46.6253 9.75272 46.3005 9.75272 45.8804ZM10.5807 45.9317C10.5807 46.2785 10.7235 46.4519 11.0093 46.4519C11.2926 46.4519 11.4342 46.2785 11.4342 45.9317V43.0962C11.4342 42.7519 11.2926 42.5797 11.0093 42.5797C10.7235 42.5797 10.5807 42.7519 10.5807 43.0962V45.9317ZM13.1721 47.1406H14.0184L14.7108 44.7338L15.0478 43.4406V47.1406H15.7915V41.8873H14.883L14.2089 44.056L13.9085 45.2137V41.8873H13.1721V47.1406ZM13.6301 40.7187H14.1393C14.1491 40.8506 14.1808 40.9409 14.2345 40.9898C14.2907 41.0386 14.3762 41.063 14.491 41.063C14.6106 41.063 14.701 41.0386 14.7621 40.9898C14.8231 40.9409 14.8585 40.8506 14.8683 40.7187H15.3702C15.3702 40.98 15.2957 41.1839 15.1467 41.3305C14.9977 41.477 14.7792 41.5503 14.491 41.5503C14.2101 41.5503 13.9976 41.4782 13.8535 41.3341C13.7119 41.1876 13.6374 40.9824 13.6301 40.7187ZM18.3038 47.1406V41.8873H19.0402V45.2137L19.3406 44.056L20.0147 41.8873H20.9232V47.1406H20.1795V43.4406L19.8425 44.7338L19.1501 47.1406H18.3038ZM21.8808 47.1406V41.8873H22.7051V44.1403H23.6429V41.8873H24.4855V47.1406H23.6429V44.8913H22.7051V47.1406H21.8808ZM25.216 47.1406L26.2381 44.0414L25.216 41.8873H26.0439L27.0184 44.0121V41.8873H27.8353V44.0121L28.8098 41.8873H29.6377L28.6229 44.0194L29.6377 47.1406H28.7878L28.0368 44.8144L27.8353 45.2137V47.1406H27.0184V45.2137L26.8169 44.807L26.0659 47.1406H25.216ZM30.3609 47.1406V41.8873H31.0972V45.2137L31.3976 44.056L32.0717 41.8873H32.9802V47.1406H32.2365V43.4406L31.8995 44.7338L31.2071 47.1406H30.3609ZM33.9378 47.1406V41.8873H34.7621V44.1403H35.6999V41.8873H36.5425V47.1406H35.6999V44.8913H34.7621V47.1406H33.9378ZM37.5148 47.1406V41.8873H38.2511V45.2137L38.5515 44.056L39.2256 41.8873H40.1341V47.1406H39.3904V43.4406L39.0534 44.7338L38.361 47.1406H37.5148ZM41.0917 47.1406V41.8873H42.308C42.7158 41.8873 43.0223 41.9984 43.2275 42.2207C43.4351 42.4429 43.5389 42.7653 43.5389 43.1878V43.8692C43.5389 44.2917 43.4351 44.6141 43.2275 44.8363C43.0223 45.0561 42.7158 45.166 42.308 45.166H41.916V47.1406H41.0917ZM41.916 44.4187H42.308C42.4447 44.4187 42.5461 44.3809 42.612 44.3051C42.678 44.2294 42.7109 44.1012 42.7109 43.9205V43.1329C42.7109 42.9521 42.678 42.8251 42.612 42.7519C42.5461 42.6762 42.4447 42.6383 42.308 42.6383H41.916V44.4187ZM44.295 47.1406V41.8873H45.0313V45.2137L45.3317 44.056L46.0058 41.8873H46.9143V47.1406H46.1707V43.4406L45.8336 44.7338L45.1412 47.1406H44.295ZM47.8719 47.1406V41.8873H48.6962V44.1403H49.634V41.8873H50.4766V47.1406H49.634V44.8913H48.6962V47.1406H47.8719ZM51.4562 47.1406V41.8873H53.6323V42.6383H52.2805V47.1406H51.4562Z" fill="white"/>
</svg>
