<svg width="32" height="24" viewBox="0 0 32 24" fill="none" xmlns="http://www.w3.org/2000/svg">
<path d="M28.1875 1H3.81252C2.2616 1 1 2.23356 1 3.75002V20.25C1 21.7664 2.2616 23 3.81252 23H28.1875C29.7384 23 31 21.7664 31 20.25V3.75002C31 2.23356 29.7384 1 28.1875 1ZM28.1875 2.83332C28.3149 2.83332 28.436 2.85916 28.5468 2.90429L16 13.537L3.45313 2.90429C3.56391 2.85922 3.68508 2.83332 3.81246 2.83332H28.1875ZM28.1875 21.1666H3.81252C3.29525 21.1666 2.87499 20.7558 2.87499 20.2499V4.84122L15.3857 15.4428C15.5624 15.5923 15.7812 15.6666 16 15.6666C16.2188 15.6666 16.4376 15.5924 16.6143 15.4428L29.125 4.84122V20.25C29.1249 20.7558 28.7047 21.1666 28.1875 21.1666Z" fill="#131313" stroke="#FBFBFB" stroke-width="0.4"/>
</svg>
