<svg width="70" height="71" viewBox="0 0 70 71" fill="none" xmlns="http://www.w3.org/2000/svg">
<path d="M45.6021 36.616V43.0063C42.8247 42.1031 42.136 41.166 42.136 39.6192C42.136 38.0724 43.2876 36.8305 45.6021 36.616ZM48.4586 48.0305V54.6015C50.7167 54.3531 52.0376 53.1902 52.0376 51.4628C52.0376 49.7354 51.236 48.8886 48.4586 48.0305ZM70.0006 46.2918C70.0006 50.9811 68.61 55.5652 66.0048 59.4642C63.3995 63.3633 59.6966 66.4022 55.3642 68.1968C51.0318 69.9913 46.2645 70.4608 41.6653 69.546C37.066 68.6311 32.8414 66.373 29.5255 63.0571C26.2096 59.7413 23.9515 55.5166 23.0366 50.9173C22.1218 46.3181 22.5913 41.5509 24.3859 37.2185C26.1804 32.8861 29.2193 29.1831 33.1184 26.5778C37.0174 23.9726 41.6015 22.582 46.2908 22.582C52.5791 22.582 58.6097 25.08 63.0562 29.5265C67.5026 33.9729 70.0006 40.0036 70.0006 46.2918ZM56.2941 51.2031C56.2941 47.3418 53.9457 45.1402 48.4586 43.7628V36.8305C49.7728 37.1458 51.0272 37.6719 52.1731 38.3885C52.3954 38.5613 52.6518 38.685 52.9254 38.7512C53.199 38.8174 53.4836 38.8247 53.7603 38.7727C54.0369 38.7206 54.2994 38.6104 54.5302 38.4492C54.7611 38.2881 54.955 38.0798 55.0993 37.838C55.2435 37.5963 55.3348 37.3266 55.3669 37.0469C55.3991 36.7673 55.3715 36.4839 55.2859 36.2157C55.2003 35.9475 55.0587 35.7006 54.8705 35.4913C54.6823 35.2819 54.4517 35.1149 54.1941 35.0014C52.4919 33.9104 50.5592 33.2301 48.5489 33.0143V32.2127C48.5155 31.818 48.335 31.4503 48.0434 31.1823C47.7517 30.9143 47.37 30.7655 46.9739 30.7655C46.5778 30.7655 46.1961 30.9143 45.9044 31.1823C45.6128 31.4503 45.4323 31.818 45.3989 32.2127V32.9805C40.8827 33.3417 37.8118 36.0063 37.8118 39.8789C37.8118 43.9547 40.2731 45.9418 45.5457 47.3192V54.4321C43.6017 54.0537 41.7729 53.2264 40.2053 52.016C39.9874 51.8677 39.7424 51.7639 39.4842 51.7103C39.2261 51.6567 38.96 51.6545 38.7011 51.7038C38.4421 51.753 38.1954 51.8528 37.975 51.9975C37.7546 52.1421 37.5649 52.3287 37.4166 52.5467C37.2683 52.7646 37.1644 53.0096 37.1109 53.2677C37.0573 53.5258 37.0551 53.792 37.1044 54.0509C37.1536 54.3099 37.2534 54.5566 37.3981 54.777C37.5427 54.9974 37.7293 55.1871 37.9473 55.3354C40.1334 56.8954 42.6838 57.8673 45.3537 58.158V60.416C45.3872 60.8107 45.5676 61.1785 45.8593 61.4465C46.151 61.7145 46.5326 61.8632 46.9287 61.8632C47.3248 61.8632 47.7065 61.7145 47.9982 61.4465C48.2899 61.1785 48.4703 60.8107 48.5037 60.416V58.2483C53.1892 57.8193 56.2941 55.1773 56.2941 51.2031Z" fill="#FEE05A"/>
<path d="M55.8309 31.7372C55.6434 31.6421 55.4331 31.6012 55.2236 31.6192C55.0142 31.6371 54.8139 31.7132 54.6454 31.8388L49.305 35.8469L43.9534 31.8388C43.758 31.6923 43.5203 31.613 43.276 31.613C43.0317 31.613 42.794 31.6923 42.5985 31.8388L38.3872 35.0001V1.12904C38.3872 0.919361 38.3288 0.713828 38.2186 0.535467C38.1084 0.357107 37.9507 0.212966 37.7631 0.119196C37.5756 0.0254263 37.3656 -0.0142674 37.1568 0.00456262C36.948 0.0233927 36.7485 0.100003 36.5808 0.225808L31.2291 4.23389L25.8775 0.225808C25.6831 0.0818881 25.4476 0.00420689 25.2057 0.00420689C24.9639 0.00420689 24.7284 0.0818881 24.534 0.225808L19.1936 4.23389L13.842 0.225808C13.6466 0.0792339 13.4089 5.00099e-07 13.1646 5.00099e-07C12.9203 5.00099e-07 12.6826 0.0792339 12.4871 0.225808L7.1468 4.23389L1.80646 0.225808C1.63872 0.100003 1.43926 0.0233927 1.23043 0.00456262C1.0216 -0.0142674 0.811655 0.0254263 0.624116 0.119196C0.436576 0.212966 0.278854 0.357107 0.168621 0.535467C0.0583877 0.713828 0 0.919361 0 1.12904V39.5163C0 42.2112 1.07057 44.7958 2.97618 46.7014C4.8818 48.607 7.46638 49.6776 10.1613 49.6776H46.2905C48.9854 49.6776 51.57 48.607 53.4756 46.7014C55.3813 44.7958 56.4518 42.2112 56.4518 39.5163V32.7421C56.4512 32.5336 56.3928 32.3293 56.2832 32.1519C56.1736 31.9746 56.017 31.831 55.8309 31.7372ZM10.1613 47.4195C8.06525 47.4195 6.05503 46.5869 4.57288 45.1047C3.09073 43.6226 2.25807 41.6123 2.25807 39.5163V3.38711L6.46938 6.54841C6.66481 6.69499 6.90251 6.77422 7.1468 6.77422C7.39109 6.77422 7.62879 6.69499 7.82422 6.54841L13.1646 2.54033L18.5049 6.54841C18.7003 6.69499 18.938 6.77422 19.1823 6.77422C19.4266 6.77422 19.6643 6.69499 19.8598 6.54841L25.2114 2.54033L30.5517 6.54841C30.7472 6.69499 30.9849 6.77422 31.2291 6.77422C31.4734 6.77422 31.7111 6.69499 31.9066 6.54841L36.1292 3.38711V39.5163C36.1301 41.0323 36.4703 42.529 37.1247 43.8965C37.7792 45.264 38.7313 46.4678 39.9114 47.4195H10.1613ZM54.1937 39.5163C54.1937 41.6123 53.3611 43.6226 51.8789 45.1047C50.3968 46.5869 48.3866 47.4195 46.2905 47.4195C44.1944 47.4195 42.1842 46.5869 40.702 45.1047C39.2199 43.6226 38.3872 41.6123 38.3872 39.5163V37.8227L43.276 34.1534L48.6276 38.1614C48.823 38.308 49.0607 38.3872 49.305 38.3872C49.5493 38.3872 49.787 38.308 49.9824 38.1614L54.1937 35.0001V39.5163ZM12.4194 15.8065H7.90325C7.60382 15.8065 7.31664 15.6876 7.10491 15.4758C6.89317 15.2641 6.77422 14.9769 6.77422 14.6775C6.77422 14.378 6.89317 14.0909 7.10491 13.8791C7.31664 13.6674 7.60382 13.5484 7.90325 13.5484H12.4194C12.7188 13.5484 13.006 13.6674 13.2177 13.8791C13.4295 14.0909 13.5484 14.378 13.5484 14.6775C13.5484 14.9769 13.4295 15.2641 13.2177 15.4758C13.006 15.6876 12.7188 15.8065 12.4194 15.8065ZM30.484 15.8065H16.9355C16.6361 15.8065 16.3489 15.6876 16.1372 15.4758C15.9255 15.2641 15.8065 14.9769 15.8065 14.6775C15.8065 14.378 15.9255 14.0909 16.1372 13.8791C16.3489 13.6674 16.6361 13.5484 16.9355 13.5484H30.484C30.7834 13.5484 31.0706 13.6674 31.2823 13.8791C31.4941 14.0909 31.613 14.378 31.613 14.6775C31.613 14.9769 31.4941 15.2641 31.2823 15.4758C31.0706 15.6876 30.7834 15.8065 30.484 15.8065ZM12.4194 23.7098H7.90325C7.60382 23.7098 7.31664 23.5908 7.10491 23.3791C6.89317 23.1673 6.77422 22.8802 6.77422 22.5807C6.77422 22.2813 6.89317 21.9941 7.10491 21.7824C7.31664 21.5706 7.60382 21.4517 7.90325 21.4517H12.4194C12.7188 21.4517 13.006 21.5706 13.2177 21.7824C13.4295 21.9941 13.5484 22.2813 13.5484 22.5807C13.5484 22.8802 13.4295 23.1673 13.2177 23.3791C13.006 23.5908 12.7188 23.7098 12.4194 23.7098ZM30.484 23.7098H16.9355C16.6361 23.7098 16.3489 23.5908 16.1372 23.3791C15.9255 23.1673 15.8065 22.8802 15.8065 22.5807C15.8065 22.2813 15.9255 21.9941 16.1372 21.7824C16.3489 21.5706 16.6361 21.4517 16.9355 21.4517H30.484C30.7834 21.4517 31.0706 21.5706 31.2823 21.7824C31.4941 21.9941 31.613 22.2813 31.613 22.5807C31.613 22.8802 31.4941 23.1673 31.2823 23.3791C31.0706 23.5908 30.7834 23.7098 30.484 23.7098ZM12.4194 31.613H7.90325C7.60382 31.613 7.31664 31.4941 7.10491 31.2823C6.89317 31.0706 6.77422 30.7834 6.77422 30.484C6.77422 30.1845 6.89317 29.8974 7.10491 29.6856C7.31664 29.4739 7.60382 29.3549 7.90325 29.3549H12.4194C12.7188 29.3549 13.006 29.4739 13.2177 29.6856C13.4295 29.8974 13.5484 30.1845 13.5484 30.484C13.5484 30.7834 13.4295 31.0706 13.2177 31.2823C13.006 31.4941 12.7188 31.613 12.4194 31.613ZM30.484 31.613H16.9355C16.6361 31.613 16.3489 31.4941 16.1372 31.2823C15.9255 31.0706 15.8065 30.7834 15.8065 30.484C15.8065 30.1845 15.9255 29.8974 16.1372 29.6856C16.3489 29.4739 16.6361 29.3549 16.9355 29.3549H30.484C30.7834 29.3549 31.0706 29.4739 31.2823 29.6856C31.4941 29.8974 31.613 30.1845 31.613 30.484C31.613 30.7834 31.4941 31.0706 31.2823 31.2823C31.0706 31.4941 30.7834 31.613 30.484 31.613ZM12.4194 39.5163H7.90325C7.60382 39.5163 7.31664 39.3973 7.10491 39.1856C6.89317 38.9739 6.77422 38.6867 6.77422 38.3872C6.77422 38.0878 6.89317 37.8006 7.10491 37.5889C7.31664 37.3772 7.60382 37.2582 7.90325 37.2582H12.4194C12.7188 37.2582 13.006 37.3772 13.2177 37.5889C13.4295 37.8006 13.5484 38.0878 13.5484 38.3872C13.5484 38.6867 13.4295 38.9739 13.2177 39.1856C13.006 39.3973 12.7188 39.5163 12.4194 39.5163ZM30.484 39.5163H16.9355C16.6361 39.5163 16.3489 39.3973 16.1372 39.1856C15.9255 38.9739 15.8065 38.6867 15.8065 38.3872C15.8065 38.0878 15.9255 37.8006 16.1372 37.5889C16.3489 37.3772 16.6361 37.2582 16.9355 37.2582H30.484C30.7834 37.2582 31.0706 37.3772 31.2823 37.5889C31.4941 37.8006 31.613 38.0878 31.613 38.3872C31.613 38.6867 31.4941 38.9739 31.2823 39.1856C31.0706 39.3973 30.7834 39.5163 30.484 39.5163Z" fill="#FEA851"/>
</svg>
