<svg width="251" height="345" viewBox="0 0 251 345" fill="none" xmlns="http://www.w3.org/2000/svg">
<mask id="path-1-inside-1" fill="white">
<path fill-rule="evenodd" clip-rule="evenodd" d="M5 0C2.23858 0 0 2.23858 0 5V94.2085L9.37727 103.586C10.1583 104.367 10.1583 105.633 9.37727 106.414L0 115.791V340C0 342.761 2.23857 345 4.99999 345H246C248.761 345 251 342.761 251 340V5C251 2.23858 248.761 0 246 0H5Z"/>
</mask>
<path fill-rule="evenodd" clip-rule="evenodd" d="M5 0C2.23858 0 0 2.23858 0 5V94.2085L9.37727 103.586C10.1583 104.367 10.1583 105.633 9.37727 106.414L0 115.791V340C0 342.761 2.23857 345 4.99999 345H246C248.761 345 251 342.761 251 340V5C251 2.23858 248.761 0 246 0H5Z" fill="#FBFBFB" fill-opacity="0.8"/>
<path d="M0 94.2085H-3V95.4512L-2.12132 96.3298L0 94.2085ZM9.37727 103.586L11.4986 101.464L11.4986 101.464L9.37727 103.586ZM9.37727 106.414L11.4986 108.536L11.4986 108.536L9.37727 106.414ZM0 115.791L-2.12132 113.67L-3 114.549V115.791H0ZM3 5C3 3.89543 3.89543 3 5 3V-3C0.581723 -3 -3 0.58172 -3 5H3ZM3 94.2085V5H-3V94.2085H3ZM-2.12132 96.3298L7.25595 105.707L11.4986 101.464L2.12132 92.0872L-2.12132 96.3298ZM7.25594 105.707C6.86542 105.317 6.86542 104.683 7.25594 104.293L11.4986 108.536C13.4512 106.583 13.4512 103.417 11.4986 101.464L7.25594 105.707ZM7.25595 104.293L-2.12132 113.67L2.12132 117.913L11.4986 108.536L7.25595 104.293ZM3 340V115.791H-3V340H3ZM4.99999 342C3.89543 342 3 341.105 3 340H-3C-3 344.418 0.581705 348 4.99999 348V342ZM246 342H4.99999V348H246V342ZM248 340C248 341.105 247.105 342 246 342V348C250.418 348 254 344.418 254 340H248ZM248 5V340H254V5H248ZM246 3C247.105 3 248 3.89543 248 5H254C254 0.581724 250.418 -3 246 -3V3ZM5 3H246V-3H5V3Z" fill="#FEE05A" mask="url(#path-1-inside-1)"/>
</svg>
